<?xml version="1.0" encoding="utf-8"?>
<!-- created with bpmn-js / http://bpmn.io -->
<!DOCTYPE svg PUBLIC "-//W3C//DTD SVG 1.1//EN" "http://www.w3.org/Graphics/SVG/1.1/DTD/svg11.dtd">
<svg xmlns="http://www.w3.org/2000/svg" xmlns:xlink="http://www.w3.org/1999/xlink" width="630" height="231" viewBox="167 74 630 231" version="1.1"><defs><marker viewBox="0 0 20 20" markerWidth="10" markerHeight="10" orient="auto" refX="11" refY="10" id="markerSienyxvqo9"><path d="M 1 5 L 11 10 L 1 15 Z" style="stroke-width: 1; stroke-linecap: round; stroke-dasharray: 10000, 1;" fill="#000000"/></marker><marker viewBox="0 0 20 20" markerWidth="20" markerHeight="20" orient="auto" refX="6" refY="6" id="markerSienyxvqob"><circle cx="6" cy="6" r="3.5" style="stroke-width: 1; stroke-linecap: round; stroke-dasharray: 10000, 1;" fill="#ffffff" stroke="#000000"/></marker><marker viewBox="0 0 20 20" markerWidth="20" markerHeight="20" orient="auto" refX="8.5" refY="5" id="markerSienyxvqod"><path d="m 1 5 l 0 -3 l 7 3 l -7 3 z" style="stroke-width: 1; stroke-linecap: butt; stroke-dasharray: 10000, 1;" fill="#ffffff" stroke="#000000"/></marker><marker viewBox="0 0 20 20" markerWidth="10" markerHeight="10" orient="auto" refX="11" refY="10" id="markerSienyxvqof"><path d="M 1 5 L 11 10 L 1 15" style="stroke-width: 1; stroke-linecap: round; stroke-dasharray: 10000, 1;" fill="#ffffff" stroke="#000000"/></marker><marker viewBox="0 0 20 20" markerWidth="10" markerHeight="10" orient="auto" refX="-1" refY="10" id="markerSienyxvqoh"><path d="M 0 10 L 8 6 L 16 10 L 8 14 Z" style="stroke-width: 1; stroke-linecap: round; stroke-dasharray: 10000, 1;" fill="#ffffff" stroke="#000000"/></marker><marker viewBox="0 0 20 20" markerWidth="10" markerHeight="10" orient="auto" refX="-5" refY="10" id="markerSienyxvqoj"><path d="M 1 4 L 5 16" style="stroke-width: 1; stroke-linecap: round; stroke-dasharray: 10000, 1;" fill="#000000" stroke="#000000"/></marker></defs><g xmlns="http://www.w3.org/2000/svg" class="djs-group"><g style="display: block;" transform="matrix(1,0,0,1,173,102)" data-element-id="StartEvent_1" class="djs-element djs-shape"><g class="djs-visual"><circle fill="#ffffff" stroke="#000000" style="stroke-width: 2;" r="18" cy="18" cx="18"></circle></g><rect class="djs-hit" stroke="#ffffff" fill="none" style="stroke-opacity: 0; stroke-width: 15;" height="36" width="36" y="0" x="0"></rect><rect class="djs-outline" fill="none" style="" height="48" width="48" y="-6" x="-6"></rect></g></g><g xmlns="http://www.w3.org/2000/svg" class="djs-group"><g style="display: block;" transform="matrix(1,0,0,1,257,80)" data-element-id="Task_1jxrfe5" class="djs-element djs-shape"><g class="djs-visual"><rect fill="#ffffff" stroke="#000000" style="stroke-width: 2;" ry="10" rx="10" height="80" width="100" y="0" x="0"></rect><text class=" djs-label" style="font-family: Arial,sans-serif; font-size: 12px;"><tspan y="36.5" x="14">RVV avaldab </tspan><tspan y="50.5" x="35">teate </tspan></text></g><rect class="djs-hit" stroke="#ffffff" fill="none" style="stroke-opacity: 0; stroke-width: 15;" height="80" width="100" y="0" x="0"></rect><rect class="djs-outline" fill="none" style="" height="92" width="112" y="-6" x="-6"></rect></g></g><g xmlns="http://www.w3.org/2000/svg" class="djs-group"><g style="display: block;" transform="matrix(1,0,0,1,395,102)" data-element-id="IntermediateCatchEvent_0t72a6u" class="djs-element djs-shape"><g class="djs-visual"><circle fill="#ffffff" stroke="#000000" style="stroke-width: 1;" r="18" cy="18" cx="18"></circle><circle fill="none" stroke="#000000" style="stroke-width: 1;" r="15" cy="18" cx="18"></circle><circle fill="#ffffff" stroke="#000000" style="stroke-width: 2;" r="11" cy="18" cx="18"></circle><path stroke="#000000" fill="none" style="stroke-width: 2; stroke-linecap: square;" d="M 18,18 l 2.25,-7.5 m -2.25,7.5 l 5.25,1.5 "></path><path transform="matrix(1,0,0,1,0,0)" stroke="#000000" fill="none" style="stroke-width: 1; stroke-linecap: square;" d="M 18,18 m 0,7.5 l -0,2.25 "></path><path transform="matrix(0.866,0.5,-0.5,0.866,11.4115,-6.5885)" stroke="#000000" fill="none" style="stroke-width: 1; stroke-linecap: square;" d="M 18,18 m 0,7.5 l -0,2.25 "></path><path transform="matrix(0.5,0.866,-0.866,0.5,24.5885,-6.5885)" stroke="#000000" fill="none" style="stroke-width: 1; stroke-linecap: square;" d="M 18,18 m 0,7.5 l -0,2.25 "></path><path transform="matrix(0,1,-1,0,36,0)" stroke="#000000" fill="none" style="stroke-width: 1; stroke-linecap: square;" d="M 18,18 m 0,7.5 l -0,2.25 "></path><path transform="matrix(-0.5,0.866,-0.866,-0.5,42.5885,11.4115)" stroke="#000000" fill="none" style="stroke-width: 1; stroke-linecap: square;" d="M 18,18 m 0,7.5 l -0,2.25 "></path><path transform="matrix(-0.866,0.5,-0.5,-0.866,42.5885,24.5885)" stroke="#000000" fill="none" style="stroke-width: 1; stroke-linecap: square;" d="M 18,18 m 0,7.5 l -0,2.25 "></path><path transform="matrix(-1,0,0,-1,36,36)" stroke="#000000" fill="none" style="stroke-width: 1; stroke-linecap: square;" d="M 18,18 m 0,7.5 l -0,2.25 "></path><path transform="matrix(-0.866,-0.5,0.5,-0.866,24.5885,42.5885)" stroke="#000000" fill="none" style="stroke-width: 1; stroke-linecap: square;" d="M 18,18 m 0,7.5 l -0,2.25 "></path><path transform="matrix(-0.5,-0.866,0.866,-0.5,11.4115,42.5885)" stroke="#000000" fill="none" style="stroke-width: 1; stroke-linecap: square;" d="M 18,18 m 0,7.5 l -0,2.25 "></path><path transform="matrix(0,-1,1,0,0,36)" stroke="#000000" fill="none" style="stroke-width: 1; stroke-linecap: square;" d="M 18,18 m 0,7.5 l -0,2.25 "></path><path transform="matrix(0.5,-0.866,0.866,0.5,-6.5885,24.5885)" stroke="#000000" fill="none" style="stroke-width: 1; stroke-linecap: square;" d="M 18,18 m 0,7.5 l -0,2.25 "></path><path transform="matrix(0.866,-0.5,0.5,0.866,-6.5885,11.4115)" stroke="#000000" fill="none" style="stroke-width: 1; stroke-linecap: square;" d="M 18,18 m 0,7.5 l -0,2.25 "></path></g><rect class="djs-hit" stroke="#ffffff" fill="none" style="stroke-opacity: 0; stroke-width: 15;" height="36" width="36" y="0" x="0"></rect><rect class="djs-outline" fill="none" style="" height="48" width="48" y="-6" x="-6"></rect></g></g><g xmlns="http://www.w3.org/2000/svg" class="djs-group"><g style="display: block;" transform="matrix(1,0,0,1,466,95)" data-element-id="ExclusiveGateway_1sw0iew" class="djs-element djs-shape"><g class="djs-visual"><polygon fill="#ffffff" stroke="#000000" style="stroke-width: 2;" points="25,0,50,25,25,50,0,25"></polygon><path stroke="#000000" fill="#000000" style="stroke-width: 1;" d="m 16,15 7.42857142857143,9.714285714285715 -7.42857142857143,9.714285714285715 3.428571428571429,0 5.714285714285715,-7.464228571428572 5.714285714285715,7.464228571428572 3.428571428571429,0 -7.42857142857143,-9.714285714285715 7.42857142857143,-9.714285714285715 -3.428571428571429,0 -5.714285714285715,7.464228571428572 -5.714285714285715,-7.464228571428572 -3.428571428571429,0 z"></path></g><rect class="djs-hit" stroke="#ffffff" fill="none" style="stroke-opacity: 0; stroke-width: 15;" height="50" width="50" y="0" x="0"></rect><rect class="djs-outline" fill="none" style="" height="62" width="62" y="-6" x="-6"></rect></g></g><g xmlns="http://www.w3.org/2000/svg" class="djs-group"><g style="display: block;" transform="matrix(1,0,0,1,441,219)" data-element-id="Task_1w1dq3l" class="djs-element djs-shape"><g class="djs-visual"><rect fill="#ffffff" stroke="#000000" style="stroke-width: 2;" ry="10" rx="10" height="80" width="100" y="0" x="0"></rect><text class=" djs-label" style="font-family: Arial,sans-serif; font-size: 12px;"><tspan y="36.5" x="24">ÕI esitab </tspan><tspan y="50.5" x="26.5">taotluse </tspan></text></g><rect class="djs-hit" stroke="#ffffff" fill="none" style="stroke-opacity: 0; stroke-width: 15;" height="80" width="100" y="0" x="0"></rect><rect class="djs-outline" fill="none" style="" height="92" width="112" y="-6" x="-6"></rect></g></g><g xmlns="http://www.w3.org/2000/svg" class="djs-group"><g style="display: block;" transform="matrix(1,0,0,1,607,80)" data-element-id="Task_057tvhy" class="djs-element djs-shape"><g class="djs-visual"><rect fill="#ffffff" stroke="#000000" style="stroke-width: 2;" ry="10" rx="10" height="80" width="100" y="0" x="0"></rect><text class=" djs-label" style="font-family: Arial,sans-serif; font-size: 12px;"><tspan y="36.5" x="9.5">RVV menetleb </tspan><tspan y="50.5" x="28.5">taotlust </tspan></text></g><rect class="djs-hit" stroke="#ffffff" fill="none" style="stroke-opacity: 0; stroke-width: 15;" height="80" width="100" y="0" x="0"></rect><rect class="djs-outline" fill="none" style="" height="92" width="112" y="-6" x="-6"></rect></g></g><g xmlns="http://www.w3.org/2000/svg" class="djs-group"><g style="display: block;" transform="matrix(1,0,0,1,755,102)" data-element-id="EndEvent_0v9il3o" class="djs-element djs-shape"><g class="djs-visual"><circle fill="#ffffff" stroke="#000000" style="stroke-width: 4;" r="18" cy="18" cx="18"></circle></g><rect class="djs-hit" stroke="#ffffff" fill="none" style="stroke-opacity: 0; stroke-width: 15;" height="36" width="36" y="0" x="0"></rect><rect class="djs-outline" fill="none" style="" height="48" width="48" y="-6" x="-6"></rect></g></g><g xmlns="http://www.w3.org/2000/svg" class="djs-group"><g style="display: none;" transform="matrix(1,0,0,1,146,138)" data-element-id="StartEvent_1_label" class="djs-element djs-shape"><g class="djs-visual"><text class=" djs-label" style="font-family: Arial,sans-serif; font-size: 11px;"><tspan y="0" x="45"></tspan></text></g><rect class="djs-hit" stroke="#ffffff" fill="none" style="stroke-opacity: 0; stroke-width: 15;" height="20" width="90" y="0" x="0"></rect><rect class="djs-outline" fill="none" style="" height="32" width="102" y="-6" x="-6"></rect></g></g><g xmlns="http://www.w3.org/2000/svg" class="djs-group"><g style="display: block;" data-element-id="SequenceFlow_0tzc3lv" class="djs-element djs-connection"><g class="djs-visual"><path stroke="#000000" fill="none" style="stroke-width: 2; stroke-linejoin: round; marker-end: url(&quot;#markerSienyxvqo9&quot;);" d="m  209,120L257,120 "></path></g><polyline class="djs-hit" stroke="#ffffff" fill="none" style="stroke-opacity: 0; stroke-width: 15;" points="209,120 257,120 "></polyline><rect class="djs-outline" fill="none" style="" height="12" width="60" y="114" x="203"></rect></g></g><g xmlns="http://www.w3.org/2000/svg" class="djs-group"><g style="display: none;" transform="matrix(1,0,0,1,188,110)" data-element-id="SequenceFlow_0tzc3lv_label" class="djs-element djs-shape"><g class="djs-visual"><text class=" djs-label" style="font-family: Arial,sans-serif; font-size: 11px;"><tspan y="0" x="45"></tspan></text></g><rect class="djs-hit" stroke="#ffffff" fill="none" style="stroke-opacity: 0; stroke-width: 15;" height="20" width="90" y="0" x="0"></rect><rect class="djs-outline" fill="none" style="" height="32" width="102" y="-6" x="-6"></rect></g></g><g xmlns="http://www.w3.org/2000/svg" class="djs-group"><g style="display: block;" data-element-id="SequenceFlow_05iht4i" class="djs-element djs-connection"><g class="djs-visual"><path stroke="#000000" fill="none" style="stroke-width: 2; stroke-linejoin: round; marker-end: url(&quot;#markerSienyxvqo9&quot;);" d="m  357,120L395,120 "></path></g><polyline class="djs-hit" stroke="#ffffff" fill="none" style="stroke-opacity: 0; stroke-width: 15;" points="357,120 395,120 "></polyline><rect class="djs-outline" fill="none" style="" height="12" width="50" y="114" x="351"></rect></g></g><g xmlns="http://www.w3.org/2000/svg" class="djs-group"><g style="display: none;" transform="matrix(1,0,0,1,368,138)" data-element-id="IntermediateCatchEvent_0t72a6u_label" class="djs-element djs-shape"><g class="djs-visual"><text class=" djs-label" style="font-family: Arial,sans-serif; font-size: 11px;"><tspan y="0" x="45"></tspan></text></g><rect class="djs-hit" stroke="#ffffff" fill="none" style="stroke-opacity: 0; stroke-width: 15;" height="20" width="90" y="0" x="0"></rect><rect class="djs-outline" fill="none" style="" height="32" width="102" y="-6" x="-6"></rect></g></g><g xmlns="http://www.w3.org/2000/svg" class="djs-group"><g style="display: none;" transform="matrix(1,0,0,1,446,145)" data-element-id="ExclusiveGateway_1sw0iew_label" class="djs-element djs-shape"><g class="djs-visual"><text class=" djs-label" style="font-family: Arial,sans-serif; font-size: 11px;"><tspan y="0" x="45"></tspan></text></g><rect class="djs-hit" stroke="#ffffff" fill="none" style="stroke-opacity: 0; stroke-width: 15;" height="20" width="90" y="0" x="0"></rect><rect class="djs-outline" fill="none" style="" height="32" width="102" y="-6" x="-6"></rect></g></g><g xmlns="http://www.w3.org/2000/svg" class="djs-group"><g style="display: block;" data-element-id="SequenceFlow_08ocfq0" class="djs-element djs-connection"><g class="djs-visual"><path stroke="#000000" fill="none" style="stroke-width: 2; stroke-linejoin: round; marker-end: url(&quot;#markerSienyxvqo9&quot;);" d="m  431,120L466,120 "></path></g><polyline class="djs-hit" stroke="#ffffff" fill="none" style="stroke-opacity: 0; stroke-width: 15;" points="431,120 466,120 "></polyline><rect class="djs-outline" fill="none" style="" height="12" width="47" y="114" x="425"></rect></g></g><g xmlns="http://www.w3.org/2000/svg" class="djs-group"><g style="display: block;" data-element-id="SequenceFlow_08r9xtz" class="djs-element djs-connection"><g class="djs-visual"><path stroke="#000000" fill="none" style="stroke-width: 2; stroke-linejoin: round; marker-end: url(&quot;#markerSienyxvqo9&quot;);" d="m  491,145L491,219 "></path></g><polyline class="djs-hit" stroke="#ffffff" fill="none" style="stroke-opacity: 0; stroke-width: 15;" points="491,145 491,219 "></polyline><rect class="djs-outline" fill="none" style="" height="86" width="12" y="139" x="485"></rect></g></g><g xmlns="http://www.w3.org/2000/svg" class="djs-group"><g style="display: none;" transform="matrix(1,0,0,1,446,172)" data-element-id="SequenceFlow_08r9xtz_label" class="djs-element djs-shape"><g class="djs-visual"><text class=" djs-label" style="font-family: Arial,sans-serif; font-size: 11px;"><tspan y="0" x="45"></tspan></text></g><rect class="djs-hit" stroke="#ffffff" fill="none" style="stroke-opacity: 0; stroke-width: 15;" height="20" width="90" y="0" x="0"></rect><rect class="djs-outline" fill="none" style="" height="32" width="102" y="-6" x="-6"></rect></g></g><g xmlns="http://www.w3.org/2000/svg" class="djs-group"><g style="display: block;" data-element-id="SequenceFlow_0r8pkax" class="djs-element djs-connection"><g class="djs-visual"><path stroke="#000000" fill="none" style="stroke-width: 2; stroke-linejoin: round; marker-end: url(&quot;#markerSienyxvqo9&quot;);" d="m  541,259L574,259 L574,120 L607,120 "></path></g><polyline class="djs-hit" stroke="#ffffff" fill="none" style="stroke-opacity: 0; stroke-width: 15;" points="541,259 574,259 574,120 607,120 "></polyline><rect class="djs-outline" fill="none" style="" height="151" width="78" y="114" x="535"></rect></g></g><g xmlns="http://www.w3.org/2000/svg" class="djs-group"><g style="display: none;" transform="matrix(1,0,0,1,529,179.5)" data-element-id="SequenceFlow_0r8pkax_label" class="djs-element djs-shape"><g class="djs-visual"><text class=" djs-label" style="font-family: Arial,sans-serif; font-size: 11px;"><tspan y="0" x="45"></tspan></text></g><rect class="djs-hit" stroke="#ffffff" fill="none" style="stroke-opacity: 0; stroke-width: 15;" height="20" width="90" y="0" x="0"></rect><rect class="djs-outline" fill="none" style="" height="32" width="102" y="-6" x="-6"></rect></g></g><g xmlns="http://www.w3.org/2000/svg" class="djs-group"><g style="display: none;" transform="matrix(1,0,0,1,728,138)" data-element-id="EndEvent_0v9il3o_label" class="djs-element djs-shape"><g class="djs-visual"><text class=" djs-label" style="font-family: Arial,sans-serif; font-size: 11px;"><tspan y="0" x="45"></tspan></text></g><rect class="djs-hit" stroke="#ffffff" fill="none" style="stroke-opacity: 0; stroke-width: 15;" height="20" width="90" y="0" x="0"></rect><rect class="djs-outline" fill="none" style="" height="32" width="102" y="-6" x="-6"></rect></g></g><g xmlns="http://www.w3.org/2000/svg" class="djs-group"><g style="display: block;" data-element-id="SequenceFlow_15943gk" class="djs-element djs-connection"><g class="djs-visual"><path stroke="#000000" fill="none" style="stroke-width: 2; stroke-linejoin: round; marker-end: url(&quot;#markerSienyxvqo9&quot;);" d="m  707,120L755,120 "></path></g><polyline class="djs-hit" stroke="#ffffff" fill="none" style="stroke-opacity: 0; stroke-width: 15;" points="707,120 755,120 "></polyline><rect class="djs-outline" fill="none" style="" height="12" width="60" y="114" x="701"></rect></g></g><g xmlns="http://www.w3.org/2000/svg" class="djs-group"><g style="display: none;" transform="matrix(1,0,0,1,686,110)" data-element-id="SequenceFlow_15943gk_label" class="djs-element djs-shape"><g class="djs-visual"><text class=" djs-label" style="font-family: Arial,sans-serif; font-size: 11px;"><tspan y="0" x="45"></tspan></text></g><rect class="djs-hit" stroke="#ffffff" fill="none" style="stroke-opacity: 0; stroke-width: 15;" height="20" width="90" y="0" x="0"></rect><rect class="djs-outline" fill="none" style="" height="32" width="102" y="-6" x="-6"></rect></g></g><g xmlns="http://www.w3.org/2000/svg" class="djs-group"><g style="display: none;" transform="matrix(1,0,0,1,331,121)" data-element-id="SequenceFlow_05iht4i_label" class="djs-element djs-shape"><g class="djs-visual"><text class=" djs-label" style="font-family: Arial,sans-serif; font-size: 11px;"><tspan y="0" x="45"></tspan></text></g><rect class="djs-hit" stroke="#ffffff" fill="none" style="stroke-opacity: 0; stroke-width: 15;" height="20" width="90" y="0" x="0"></rect><rect class="djs-outline" fill="none" style="" height="32" width="102" y="-6" x="-6"></rect></g></g><g xmlns="http://www.w3.org/2000/svg" class="djs-group"><g style="display: block;" transform="matrix(1,0,0,1,401.5,122)" data-element-id="SequenceFlow_08ocfq0_label" class="djs-element djs-shape"><g class="djs-visual"><text class=" djs-label" style="font-family: Arial,sans-serif; font-size: 11px;"><tspan y="13" x="34.5">10p</tspan></text></g><rect class="djs-hit" stroke="#ffffff" fill="none" style="stroke-opacity: 0; stroke-width: 15;" height="20" width="90" y="0" x="0"></rect><rect class="djs-outline" fill="none" style="" height="32" width="102" y="-6" x="-6"></rect></g></g><g xmlns="http://www.w3.org/2000/svg" class="djs-group"><g style="display: block;" data-element-id="SequenceFlow_0zgoka5" class="djs-element djs-connection"><g class="djs-visual"><path stroke="#000000" fill="none" style="stroke-width: 2; stroke-linejoin: round; marker-end: url(&quot;#markerSienyxvqo9&quot;);" d="m  516,120L607,120 "></path></g><polyline class="djs-hit" stroke="#ffffff" fill="none" style="stroke-opacity: 0; stroke-width: 15;" points="516,120 607,120 "></polyline><rect class="djs-outline" fill="none" style="" height="12" width="103" y="114" x="510"></rect></g></g><g xmlns="http://www.w3.org/2000/svg" class="djs-group"><g style="display: none;" transform="matrix(1,0,0,1,516.5,110)" data-element-id="SequenceFlow_0zgoka5_label" class="djs-element djs-shape"><g class="djs-visual"><text class=" djs-label" style="font-family: Arial,sans-serif; font-size: 11px;"><tspan y="0" x="45"></tspan></text></g><rect class="djs-hit" stroke="#ffffff" fill="none" style="stroke-opacity: 0; stroke-width: 15;" height="20" width="90" y="0" x="0"></rect><rect class="djs-outline" fill="none" style="" height="32" width="102" y="-6" x="-6"></rect></g></g></svg>